<svg class="logo__icon layout-header__logo__icon" version="1.1" xmlns="http://www.w3.org/2000/svg" viewBox="38.24 38.91 423.41 418.49" width="60px" height="60px">
	<path d="M146.99,381.188h-31.153c0-27.128,15.851-50.539,38.791-61.502c-7.397,10.897-11.725,24.048-11.725,38.212
		C142.903,366.079,144.348,373.919,146.99,381.188z M318.949,381.188h-31.153c0-27.128,15.851-50.539,38.795-61.502
		c-7.397,10.897-11.729,24.048-11.729,38.212C314.862,366.079,316.312,373.919,318.949,381.188z M407.763,362.428
		c-8.263-28.321-33.966-49.374-64.956-49.374c-37.626,0-68.135,30.501-68.135,68.127h-35.543
		c-0.004-37.626-30.508-68.127-68.134-68.127c-37.625,0-68.134,30.501-68.134,68.127H74.034c-1.651-9.662-2.521-19.581-2.521-29.712
		c0-39.254,12.929-75.497,34.755-104.692c-14.887-11.026-26.387-26.873-31.825-46.095c-11.573-40.862,12.148-83.301,53.002-94.862
		c9.693-2.743,15.82-12.809,13.073-22.498c-2.743-9.693-13.31-15.318-22.999-12.575c-6.946,1.965-14.176-2.067-16.138-9.017
		c-1.97-6.95,2.059-14.172,9.013-16.142c23.601-6.678,48.115,7.008,54.793,30.609c6.682,23.597-7.016,48.107-30.617,54.79
		c-20.427,5.781-32.288,26.997-26.507,47.427c4.639,16.379,16.278,28.861,30.746,35.132c29.688-23.213,67.07-37.051,107.675-37.051
		c31.717,0,61.46,8.438,87.112,23.189c2.023-19.487,13.158-36.62,29.549-45.796c0.446,1.818,0.831,3.671,1.122,5.559
		c2.129,13.866-0.505,27.3-6.585,38.585c3.617-1.375,7.401-2.432,11.367-3.038c13.812-2.125,27.262,1.037,38.435,8.026
		c-8.163,7.96-18.671,13.512-30.633,15.354c-5.699,0.874-11.333,0.835-16.771,0.015c37.56,32.09,61.378,79.805,61.378,133.08
		c0,3.562-0.101,7.128-0.314,10.633c-0.171,3.997-2.549,6.589-6.092,6.775C411.5,369.06,409.426,366.849,407.763,362.428z
		 M354.667,263.882c0-6.892-5.582-12.479-12.475-12.479c-6.888,0-12.479,5.587-12.479,12.479c0,6.889,5.591,12.479,12.479,12.479
		C349.085,276.36,354.667,270.771,354.667,263.882z"></path>
	<path d="M54.373,456.84c-5.233-1.049-10.33-3.566-14.786-7.417l-1.344-1.188l6.228-6.993l1.344,1.189
		c3.251,2.801,6.861,4.685,10.396,5.388h0.07c1.064,0.21,2.125,0.346,3.186,0.346c1.768,0,3.396-0.346,4.739-0.975
		c1.698-0.703,3.679-2.242,3.679-5.104c0-1.543-0.777-2.735-2.405-3.71c-1.981-1.193-4.669-1.822-6.581-2.168
		c-0.851-0.145-8.065-1.612-11.391-3.427c-2.191-1.333-3.885-3.011-5.089-4.969c-1.204-2.028-1.771-4.266-1.771-6.718
		c0-2.653,0.855-5.311,2.479-7.762c1.554-2.031,3.675-3.71,6.224-4.898c2.549-1.189,5.377-1.818,8.415-1.818
		c1.204,0,2.479,0.144,3.753,0.283c4.666,0.836,9.266,2.934,13.298,6.298l1.344,1.111l-6.014,7.21l-1.344-1.119
		c-4.596-3.706-8.559-4.545-11.103-4.545c-1.628,0-3.112,0.35-4.386,0.909c-1.981,0.909-3.256,2.587-3.256,4.266
		c0,1.534,0.567,2.518,1.912,3.427c1.344,0.908,3.396,1.608,6.647,2.308c0.423,0.069,0.991,0.21,1.558,0.35
		c2.968,0.556,6.935,1.402,9.689,3.007c2.405,1.259,4.246,3.007,5.521,5.035c1.274,2.027,1.912,4.409,1.912,6.931
		c0,3.146-0.855,5.943-2.549,8.317c-1.484,2.031-3.675,3.78-6.581,5.179c-2.475,1.259-5.233,1.818-8.698,1.818
		C57.838,457.399,56.14,457.189,54.373,456.84z"></path>

	<path d="M144.472,407.501v33.224c0.56,4.903,4.627,7.498,9.18,7.498c4.627,0,9.18-2.455,9.18-7.428v-33.294h9.324
		v33.294c0,10.438-7.987,16.472-18.504,16.472c-10.159,0-18.5-6.312-18.5-16.472v-33.294"></path>
	<path d="M128.785,431.961c0,12.548-8.135,25.236-24.18,25.236c-16.333,0-24.324-12.688-24.324-25.236
		c0-12.545,7.991-25.159,24.324-25.159C120.65,406.802,128.785,419.416,128.785,431.961z M119.321,432.101
		c0-8.197-4.973-16.395-14.716-16.395c-9.883,0-14.79,8.197-14.79,16.395c0,8.135,4.907,16.262,14.79,16.262
		C114.348,448.362,119.321,440.235,119.321,432.101z"></path>
	<path d="M178.737,456.567v-49.066h16.472c2.801,0,16.608,0.144,16.608,14.58c0,7.498-4.138,11.426-9.041,13.178
		l9.786,21.309h-10.12l-9.126-19.84h-5.256v19.84 M188.062,427.757h7.148c2.032,0,7.289-0.275,7.289-5.676
		c0-5.396-5.82-5.676-7.289-5.676h-7.148V427.757z"></path>
	<path d="M337.573,456.567v-49.066h16.473c2.801,0,16.608,0.144,16.608,14.58c0,7.498-4.134,11.426-9.041,13.178
		l9.786,21.309h-10.12l-9.126-19.84h-5.26v19.84 M346.894,427.757h7.152c2.031,0,7.284-0.275,7.284-5.676
		c0-5.396-5.816-5.676-7.284-5.676h-7.152V427.757z"></path>

	<path d="M332.512,416.405h-11.228v40.162H312.1v-40.162h-11.22v-8.904h31.632V416.405z"></path>
	<path d="M417.996,407.501h9.323v49.066h-9.323V407.501z"></path>
	<path d="M461.654,447.523v9.044h-26.91v-49.066h9.319v40.022H461.654z"></path>
	<path d="M395.351,408h-1.989l-19.164,49h10.12l2.009-5.793l0.348-1.207h15.213l0.348,1.207l2.156,5.793h9.922
		L395.351,408z M394.313,428.236L398.904,442h-9.24L394.313,428.236z"></path>
</svg>