<svg class="logo__icon layout-header__logo__icon" version="1.1" xmlns="http://www.w3.org/2000/svg" viewBox="38.24 38.91 423.41 358.49" width="60px" height="60px">
	<path d="M146.99,381.188h-31.153c0-27.128,15.851-50.539,38.791-61.502c-7.397,10.897-11.725,24.048-11.725,38.212
		C142.903,366.079,144.348,373.919,146.99,381.188z M318.949,381.188h-31.153c0-27.128,15.851-50.539,38.795-61.502
		c-7.397,10.897-11.729,24.048-11.729,38.212C314.862,366.079,316.312,373.919,318.949,381.188z M407.763,362.428
		c-8.263-28.321-33.966-49.374-64.956-49.374c-37.626,0-68.135,30.501-68.135,68.127h-35.543
		c-0.004-37.626-30.508-68.127-68.134-68.127c-37.625,0-68.134,30.501-68.134,68.127H74.034c-1.651-9.662-2.521-19.581-2.521-29.712
		c0-39.254,12.929-75.497,34.755-104.692c-14.887-11.026-26.387-26.873-31.825-46.095c-11.573-40.862,12.148-83.301,53.002-94.862
		c9.693-2.743,15.82-12.809,13.073-22.498c-2.743-9.693-13.31-15.318-22.999-12.575c-6.946,1.965-14.176-2.067-16.138-9.017
		c-1.97-6.95,2.059-14.172,9.013-16.142c23.601-6.678,48.115,7.008,54.793,30.609c6.682,23.597-7.016,48.107-30.617,54.79
		c-20.427,5.781-32.288,26.997-26.507,47.427c4.639,16.379,16.278,28.861,30.746,35.132c29.688-23.213,67.07-37.051,107.675-37.051
		c31.717,0,61.46,8.438,87.112,23.189c2.023-19.487,13.158-36.62,29.549-45.796c0.446,1.818,0.831,3.671,1.122,5.559
		c2.129,13.866-0.505,27.3-6.585,38.585c3.617-1.375,7.401-2.432,11.367-3.038c13.812-2.125,27.262,1.037,38.435,8.026
		c-8.163,7.96-18.671,13.512-30.633,15.354c-5.699,0.874-11.333,0.835-16.771,0.015c37.56,32.09,61.378,79.805,61.378,133.08
		c0,3.562-0.101,7.128-0.314,10.633c-0.171,3.997-2.549,6.589-6.092,6.775C411.5,369.06,409.426,366.849,407.763,362.428z
		 M354.667,263.882c0-6.892-5.582-12.479-12.475-12.479c-6.888,0-12.479,5.587-12.479,12.479c0,6.889,5.591,12.479,12.479,12.479
		C349.085,276.36,354.667,270.771,354.667,263.882z"></path>
</svg>